<svg xmlns="http://www.w3.org/2000/svg" viewBox="0 0 512 512" fill="none">
  <defs>
    <linearGradient id="primaryGradientFavicon" x1="0%" y1="0%" x2="100%" y2="100%">
      <stop offset="0%" stop-color="#7c3aed" />
      <stop offset="100%" stop-color="#a855f7" />
    </linearGradient>
    <linearGradient id="accentGradientFavicon" x1="0%" y1="0%" x2="100%" y2="100%">
      <stop offset="0%" stop-color="#d2bbff" />
      <stop offset="100%" stop-color="#34d399" />
    </linearGradient>
  </defs>

  <rect x="32" y="32" width="448" height="448" rx="112" fill="url(#primaryGradientFavicon)" />
  <circle cx="256" cy="256" r="160" stroke="white" stroke-opacity="0.2" stroke-width="12" stroke-dasharray="16 12" />
  
  <!-- Sleek Wrench Icon -->
  <path d="M180 150C155 150 135 170 135 195C135 215 148 232 166 238L140 330C136 342 145 355 158 355H190L222 245C228 246 234 246 240 244C264 236 277 210 269 186C261 162 235 149 211 157" stroke="white" stroke-width="28" stroke-linecap="round" stroke-linejoin="round" />
  
  <circle cx="340" cy="172" r="32" fill="url(#accentGradientFavicon)" />
</svg>
